<svg width="192" height="45" viewBox="0 0 192 45" fill="none" xmlns="http://www.w3.org/2000/svg">
<g clip-path="url(#clip0_1248_2)">
<path d="M35.5819 4.52399H4.44105C3.21045 4.5798 2.05199 5.12103 1.21961 6.02913C0.387236 6.93723 -0.0513823 8.13818 -0.000112185 9.36898V23.663C-0.000112185 24.1756 0.203542 24.6673 0.56605 25.0298C0.928558 25.3923 1.42033 25.596 1.93299 25.596H5.97401C6.48667 25.596 6.97844 25.3923 7.34095 25.0298C7.70346 24.6673 7.90711 24.1756 7.90711 23.663V13.155C7.90711 12.9163 8.00176 12.6874 8.17054 12.5186C8.33932 12.3498 8.56832 12.255 8.80702 12.255H31.2201C31.4588 12.255 31.6876 12.3498 31.8563 12.5186C32.0251 12.6874 32.12 12.9163 32.12 13.155V26.535L24.413 34.267H35.588C36.8188 34.2112 37.9773 33.6698 38.8097 32.7615C39.6421 31.8532 40.0805 30.652 40.0289 29.421V9.36898C40.0802 8.13719 39.6409 6.93536 38.8073 6.02708C37.9736 5.11881 36.8136 4.57826 35.5819 4.52399Z" fill="url(#paint0_linear_1248_2)"/>
<path d="M25.3582 26.536H18.885L10.2151 35.207L6.35913 31.35C5.66068 30.6513 4.71328 30.2586 3.72534 30.2584C2.7374 30.2583 1.78978 30.6505 1.09106 31.349C0.392352 32.0474 -0.000300678 32.9948 -0.000488214 33.9828C-0.00067575 34.9707 0.39164 35.9183 1.09009 36.617L7.5791 43.105C7.92459 43.4509 8.335 43.7253 8.78662 43.9125C9.23824 44.0997 9.72229 44.1961 10.2112 44.1961C10.7001 44.1961 11.1841 44.0997 11.6357 43.9125C12.0874 43.7253 12.4975 43.4509 12.843 43.105L22.0481 33.9L29.4102 26.538L25.3582 26.536Z" fill="url(#paint1_linear_1248_2)"/>
<path d="M89.3701 38.354C87.8554 38.367 86.3527 38.0819 84.948 37.515C83.6107 36.9747 82.3982 36.1665 81.385 35.14C80.3718 34.1125 79.5718 32.8948 79.031 31.557C77.9112 28.687 77.9112 25.5009 79.031 22.631C79.5679 21.297 80.3687 20.0853 81.3855 19.0685C82.4023 18.0517 83.614 17.2508 84.948 16.714C87.7971 15.5953 90.9639 15.5953 93.813 16.714C95.1421 17.2556 96.3492 18.0583 97.3626 19.0747C98.376 20.091 99.1753 21.3003 99.7132 22.631C100.832 25.5011 100.832 28.6868 99.7132 31.557C99.1717 32.8947 98.3714 34.1124 97.3582 35.14C96.3504 36.1628 95.1458 36.9707 93.8172 37.515C92.4049 38.086 90.8934 38.3712 89.3701 38.354ZM89.3701 32.254C89.9816 32.276 90.5899 32.1563 91.1475 31.9042C91.705 31.6522 92.1966 31.2746 92.584 30.801C93.4175 29.7502 93.8461 28.4351 93.792 27.095C93.8546 25.7537 93.425 24.4357 92.584 23.389C92.1752 22.9439 91.6785 22.5886 91.1253 22.3456C90.572 22.1025 89.9744 21.977 89.3701 21.977C88.7659 21.977 88.1683 22.1025 87.615 22.3456C87.0618 22.5886 86.5648 22.9439 86.156 23.389C85.3144 24.4354 84.8848 25.7536 84.948 27.095C84.8939 28.4351 85.3226 29.7502 86.156 30.801C86.5435 31.2745 87.0352 31.652 87.5928 31.9039C88.1504 32.1558 88.7587 32.2763 89.3701 32.254Z" fill="#111163"/>
<path d="M113.937 38.354C112.422 38.3669 110.92 38.0818 109.515 37.515C108.178 36.9747 106.966 36.1665 105.953 35.14C104.939 34.1128 104.139 32.8951 103.598 31.557C102.479 28.6868 102.479 25.5011 103.598 22.631C104.135 21.2972 104.936 20.0857 105.953 19.069C106.97 18.0522 108.181 17.2512 109.515 16.714C112.364 15.5953 115.531 15.5953 118.38 16.714C119.71 17.2552 120.917 18.0578 121.93 19.0742C122.944 20.0906 123.743 21.3001 124.28 22.631C125.399 25.5012 125.399 28.6868 124.28 31.557C123.739 32.8944 122.939 34.112 121.926 35.14C120.918 36.1626 119.713 36.9705 118.384 37.515C116.972 38.086 115.46 38.3712 113.937 38.354ZM113.937 32.254C114.549 32.276 115.157 32.1563 115.714 31.9042C116.272 31.6522 116.764 31.2746 117.151 30.801C117.985 29.7502 118.413 28.4351 118.359 27.095C118.422 25.7537 117.992 24.4358 117.151 23.389C116.742 22.9439 116.246 22.5886 115.692 22.3456C115.139 22.1025 114.541 21.977 113.937 21.977C113.333 21.977 112.735 22.1025 112.182 22.3456C111.629 22.5886 111.132 22.9439 110.723 23.389C109.882 24.4354 109.452 25.7536 109.515 27.095C109.461 28.4351 109.89 29.7502 110.723 30.801C111.111 31.2745 111.602 31.6519 112.16 31.9038C112.717 32.1557 113.326 32.2762 113.937 32.254Z" fill="#111163"/>
<path d="M155.027 38.354C153.512 38.3671 152.01 38.082 150.605 37.515C149.268 36.9748 148.055 36.1665 147.042 35.14C146.029 34.1124 145.229 32.8948 144.688 31.557C143.568 28.687 143.568 25.5009 144.688 22.631C145.225 21.297 146.026 20.0852 147.043 19.0684C148.059 18.0516 149.271 17.2508 150.605 16.714C153.454 15.5953 156.62 15.5953 159.469 16.714C160.798 17.2556 162.005 18.0583 163.019 19.0746C164.032 20.091 164.831 21.3003 165.369 22.631C166.488 25.5012 166.488 28.6868 165.369 31.557C164.828 32.8947 164.027 34.1123 163.014 35.14C162.006 36.1631 160.801 36.971 159.472 37.515C158.061 38.086 156.55 38.3712 155.027 38.354ZM155.027 32.254C155.639 32.2759 156.247 32.1562 156.804 31.9041C157.362 31.6521 157.854 31.2745 158.241 30.801C159.075 29.7502 159.503 28.4351 159.449 27.095C159.512 25.7537 159.082 24.4358 158.241 23.389C157.832 22.9439 157.335 22.5886 156.782 22.3456C156.229 22.1025 155.631 21.977 155.027 21.977C154.423 21.977 153.825 22.1025 153.272 22.3456C152.719 22.5886 152.222 22.9439 151.813 23.389C150.971 24.4354 150.542 25.7536 150.605 27.095C150.551 28.4351 150.98 29.7502 151.813 30.801C152.2 31.2745 152.692 31.652 153.25 31.9039C153.807 32.1558 154.416 32.2763 155.027 32.254Z" fill="#111163"/>
<path d="M137.104 12.846C136.803 12.8464 136.504 12.7872 136.226 12.6719C135.947 12.5566 135.694 12.3874 135.481 12.174L131.588 8.28099C131.355 8.07257 131.166 7.81868 131.034 7.53488C130.902 7.25108 130.829 6.94334 130.821 6.63048C130.812 6.31763 130.867 6.00625 130.982 5.71542C131.098 5.42458 131.272 5.1604 131.493 4.93906C131.714 4.71772 131.978 4.54386 132.269 4.42814C132.56 4.31242 132.871 4.25727 133.184 4.26606C133.497 4.27486 133.805 4.34741 134.089 4.47928C134.373 4.61115 134.627 4.79957 134.835 5.03299L137.104 7.30199L143.734 0.67299C144.172 0.281613 144.743 0.0727513 145.331 0.0892572C145.918 0.105763 146.477 0.346384 146.892 0.761754C147.308 1.17712 147.549 1.73575 147.565 2.32303C147.582 2.9103 147.373 3.4817 146.982 3.91999L138.728 12.174C138.515 12.3875 138.262 12.5567 137.983 12.6721C137.704 12.7874 137.406 12.8465 137.104 12.846Z" fill="url(#paint2_linear_1248_2)"/>
<path d="M190.998 22.549C190.501 21.2405 189.749 20.0438 188.786 19.028C187.865 18.0592 186.758 17.2861 185.531 16.755C184.304 16.2224 182.979 15.95 181.641 15.955C180.693 15.9492 179.751 16.1085 178.857 16.426C178.013 16.7235 177.224 17.1591 176.523 17.715V11.187C176.523 10.2911 176.167 9.43188 175.534 8.79838C174.9 8.16488 174.041 7.80899 173.145 7.80899C172.249 7.80899 171.39 8.16488 170.757 8.79838C170.123 9.43188 169.767 10.2911 169.767 11.187V33.767V33.783C169.766 34.5668 170.001 35.3329 170.44 35.9818C170.88 36.6308 171.504 37.1327 172.232 37.4224C172.961 37.7122 173.759 37.7764 174.525 37.6067C175.29 37.4371 175.987 37.0414 176.524 36.471C177.211 37.0474 177.994 37.498 178.837 37.802C179.723 38.1198 180.659 38.2789 181.6 38.272C182.954 38.2801 184.293 38.0013 185.531 37.454C186.76 36.9082 187.867 36.1214 188.786 35.14C189.747 34.1144 190.498 32.9112 190.998 31.598C192.062 28.6755 192.062 25.4715 190.998 22.549ZM183.873 30.882C183.475 31.3279 182.987 31.6843 182.441 31.9277C181.895 32.1711 181.303 32.2959 180.705 32.2939C180.108 32.2919 179.517 32.1632 178.973 31.9162C178.428 31.6692 177.942 31.3095 177.547 30.861C176.716 29.7866 176.294 28.451 176.359 27.094C176.292 25.7428 176.714 24.4127 177.547 23.347C177.946 22.9042 178.433 22.5499 178.977 22.3067C179.521 22.0635 180.11 21.9369 180.706 21.935C181.301 21.9331 181.891 22.056 182.437 22.2957C182.982 22.5355 183.471 22.8868 183.873 23.327C184.699 24.403 185.113 25.7392 185.04 27.094C185.111 28.4549 184.698 29.7971 183.873 30.882Z" fill="#111163"/>
<path d="M140.066 19.274C140.018 18.3578 139.62 17.495 138.954 16.8636C138.288 16.2322 137.406 15.8802 136.488 15.8802C135.571 15.8802 134.688 16.2322 134.022 16.8636C133.357 17.495 132.959 18.3578 132.91 19.274V34.096C132.91 35.7893 132.31 36.8333 131.11 37.228C130.465 37.4136 129.791 37.4777 129.123 37.417C128.987 37.409 128.851 37.399 128.715 37.386L128.497 37.363C128.265 37.3302 128.031 37.3101 127.797 37.303C126.944 37.3012 126.123 37.6288 125.506 38.2176C124.888 38.8063 124.522 39.6106 124.483 40.4629C124.445 41.3151 124.737 42.1493 125.298 42.7916C125.86 43.4338 126.647 43.8345 127.497 43.91C129.043 44.1795 130.617 44.2527 132.181 44.128C133.81 44.0172 135.379 43.4727 136.726 42.551C137.907 41.681 138.799 40.4753 139.285 39.091C139.845 37.4845 140.115 35.7918 140.085 34.091V24.985C140.079 23.067 140.072 21.1633 140.066 19.274Z" fill="#111163"/>
<path d="M74.5472 28.609V24.959V24.926C74.5638 24.4265 74.482 23.9286 74.3062 23.4607C74.1304 22.9929 73.8642 22.5642 73.5227 22.1993C73.1813 21.8343 72.7713 21.5402 72.3162 21.3338C71.8611 21.1273 71.3697 21.0125 70.8702 20.996C70.8282 20.996 70.7862 20.996 70.7442 20.996H66.1702C65.7697 20.996 65.373 21.0749 65.003 21.2282C64.6329 21.3814 64.2967 21.6061 64.0135 21.8893C63.7302 22.1725 63.5056 22.5088 63.3523 22.8788C63.1991 23.2488 63.1202 23.6455 63.1202 24.046C63.1202 24.4465 63.1991 24.8431 63.3523 25.2132C63.5056 25.5832 63.7302 25.9194 64.0135 26.2027C64.2967 26.4859 64.6329 26.7105 65.003 26.8638C65.373 27.0171 65.7697 27.096 66.1702 27.096H67.7061V31.436C67.2625 31.547 66.8109 31.6225 66.3553 31.662C65.8886 31.702 65.4245 31.7223 64.9632 31.723C63.6746 31.7448 62.4078 31.3888 61.3191 30.699C60.2456 30.0074 59.3874 29.0287 58.8421 27.874C58.2343 26.5817 57.933 25.1667 57.9612 23.739C57.9041 22.1698 58.3254 20.6202 59.1692 19.296C59.9874 18.0978 61.1623 17.1881 62.5271 16.696C64.141 16.127 65.8597 15.9174 67.563 16.082C68.6094 16.1625 69.6469 16.3348 70.6631 16.597C71.4964 16.7249 72.3469 16.5252 73.0362 16.0398C73.7255 15.5543 74.2 14.8209 74.3604 13.9932C74.5208 13.1655 74.3544 12.3079 73.8963 11.6002C73.4382 10.8924 72.7239 10.3896 71.9031 10.197C69.9534 9.699 67.9523 9.43051 65.9402 9.39699C63.7478 9.34691 61.5656 9.71515 59.511 10.482C57.7135 11.1644 56.076 12.2098 54.7002 13.553C53.3736 14.8669 52.3468 16.4521 51.6902 18.2C50.9944 20.0658 50.6474 22.0437 50.667 24.035C50.6439 26.0547 51.0177 28.0593 51.7671 29.935C52.4877 31.7339 53.6003 33.3495 55.024 34.6642C56.4476 35.9789 58.1466 36.9596 59.9971 37.535C62.1349 38.1963 64.3813 38.4341 66.6101 38.235C68.3995 38.0876 70.1665 37.738 71.8772 37.193C72.6473 36.958 73.3216 36.482 73.8008 35.835C74.28 35.1879 74.5388 34.4042 74.5391 33.599C74.5391 33.564 74.5342 33.529 74.5332 33.494L74.5472 28.609Z" fill="#111163"/>
</g>
<defs>
<linearGradient id="paint0_linear_1248_2" x1="-0.00415039" y1="19.3955" x2="40.033" y2="19.3955" gradientUnits="userSpaceOnUse">
<stop stop-color="#0BEFCC"/>
<stop offset="1" stop-color="#3399FF"/>
</linearGradient>
<linearGradient id="paint1_linear_1248_2" x1="-0.000488281" y1="35.366" x2="29.4102" y2="35.366" gradientUnits="userSpaceOnUse">
<stop offset="0.008" stop-color="#7C2CD9"/>
<stop offset="1" stop-color="#3399FF"/>
</linearGradient>
<linearGradient id="paint2_linear_1248_2" x1="130.82" y1="6.46717" x2="147.566" y2="6.46717" gradientUnits="userSpaceOnUse">
<stop offset="0.008" stop-color="#7C2CD9"/>
<stop offset="1" stop-color="#3399FF"/>
</linearGradient>
<clipPath id="clip0_1248_2">
<rect width="191.796" height="44.194" fill="white"/>
</clipPath>
</defs>
</svg>
